<?xml version="1.0" encoding="utf-8"?>
<!-- Generator: Adobe Illustrator 26.0.1, SVG Export Plug-In . SVG Version: 6.00 Build 0)  -->
<svg version="1.1" id="Слой_1" xmlns="http://www.w3.org/2000/svg" xmlns:xlink="http://www.w3.org/1999/xlink" x="0px" y="0px"
	 viewBox="0 0 12 12" style="enable-background:new 0 0 12 12;" xml:space="preserve">
<style type="text/css">
	.st0{fill:#6E347A;}
	.st1{fill:#C87ACE;}
	.st2{fill:#DBB8E8;}
	.st3{fill:#A67ADD;}
	.st4{fill:#C5AFE2;}
	.st5{fill:#F4AE80;}
	.st6{fill:#25333A;}
</style>
<path class="st0" d="M6.9,8.2c-0.1,0-0.2,0.2-0.2,0.3v3c0,0.2,0,0.2,0.2,0.2h1.6c0.1,0,0.3-0.1,0.3-0.2v-3c0-0.2-0.2-0.3-0.3-0.3
	L6.9,8.2 M3.6,8.2c-0.1,0-0.3,0.2-0.3,0.3v3c0,0.2,0.1,0.2,0.3,0.2h1.6c0.1,0,0.2-0.1,0.2-0.2v-3c0-0.2-0.1-0.3-0.2-0.3L3.6,8.2"/>
<path class="st1" d="M5.8,8.4c-0.1,0-0.2,0.2-0.2,0.3v3c0,0.2,0,0.2,0.2,0.2l1.6,0c0.1,0,0.3-0.1,0.3-0.2v-3c0-0.2-0.2-0.3-0.3-0.3
	L5.8,8.4 M2,8.4c-0.1,0-0.2,0.2-0.2,0.3v3c0,0.2,0,0.2,0.2,0.2h1.6c0.1,0,0.3-0.1,0.3-0.2v-3c0-0.2-0.2-0.3-0.3-0.3L2,8.4"/>
<path class="st2" d="M0.2,6.8c0,0,0,0.1,0,0.1c-0.3,0.4-0.2,1.3,0.4,1.5c0.8,1.7,2.4,2.2,4.5,2.2c0.9,0,1.8-0.2,2.6-0.5
	c0.2,0.1,0.4,0.1,0.6,0.1c0.7,0,1.1-0.4,1.2-0.9C10,9.2,10.1,8.5,9.8,8c0.1-0.4,0.2-0.8,0.2-1.2c0-1.5-0.9-2.5-2.3-3
	C7.7,3.6,7.5,3.5,7.2,3.4C6.9,3.2,6.6,3,6.2,3C5.9,3,5.7,3.1,5.5,3.2C5.4,3.1,5.2,3,5,3C4.6,3,4.4,3.2,4.2,3.4c0,0-0.1,0-0.1,0
	C4,3.2,3.7,3,3.3,3C2.8,3,2.6,3.2,2.5,3.6c-0.4,0-0.7,0.1-1,0.2c-0.1,0-0.2-0.1-0.3-0.1C0.6,3.7,0.4,4,0.3,4.4
	C0.2,4.7,0.1,5,0.1,5.4C0,5.7,0,6.1,0.2,6.4C0.2,6.5,0.2,6.7,0.2,6.8"/>
<g>
	<path class="st3" d="M0.2,6.8c0,0,0,0.1,0,0.1c-0.3,0.4-0.2,1.3,0.4,1.5c0.8,1.7,2.4,2.2,4.5,2.2c0.9,0,1.8-0.2,2.6-0.5
		c0.2,0.1,0.4,0.1,0.6,0.1c0.7,0,1.1-0.4,1.2-0.9c0.4-0.2,0.6-0.7,0.4-1.1C9.5,8.5,8.8,9.2,8.4,8.7C8.1,8.4,6.9,9.9,5.8,9.9
		c-1.2,0-1.4-1.2-2.7-1.5C0.4,7.9-0.2,5.3,1.2,3.7c0,0,0,0,0,0C0.6,3.7,0.4,4,0.3,4.4C0.2,4.7,0.1,5,0.1,5.4C0,5.7,0,6.1,0.2,6.4
		C0.2,6.5,0.2,6.7,0.2,6.8"/>
	<path class="st3" d="M6.5,5.2c0,0.6,1,2.6,2.3,2.7c1.4,0.1,2.6-1,2.6-1.6c0-0.6-1-2-2.4-2.1C7.6,4.1,6.5,4.6,6.5,5.2"/>
</g>
<g>
	<path class="st4" d="M7.4,5.6C7.9,6.2,9.8,7,10.6,6.3c0.8-0.7,0.2-2.8-0.3-3.4C9.8,2.3,8.7,2.4,7.9,3.2C7.1,3.9,6.9,5,7.4,5.6"/>
	<path class="st4" d="M7.7,5.2c0,0.6,0.8,2.5,2,2.6c1.2,0.1,2.2-1,2.3-1.6c0-0.6-0.9-1.9-2.1-2C8.7,4.1,7.7,4.6,7.7,5.2"/>
</g>
<path class="st5" d="M5.3,3.9C4.6,5.1,5.6,6.1,6.7,6.5c0.1,0,0.4,0,0.2-0.1C6.5,6.1,6,5.4,6.4,4.9c0.5-0.7,1.2-0.1,1.9-0.1
	c0.5,0,2-1.9-1.3-1.8C6.8,3,6.6,3,6.4,3.1C6,3.2,5.6,3.4,5.3,3.9"/>
<path class="st6" d="M9.3,5.2C9.3,4.8,9.7,4.5,10,4.6c0.3,0.1,0.5,0.4,0.4,0.8C10.3,5.8,10,6,9.7,6C9.4,5.9,9.2,5.6,9.3,5.2"/>
</svg>
